<?xml version="1.0" encoding="UTF-8"?>
<!DOCTYPE svg PUBLIC "-//W3C//DTD SVG 1.1//EN" "http://www.w3.org/Graphics/SVG/1.1/DTD/svg11.dtd">
<!-- Creator: CorelDRAW (Versão OEM) -->
<svg xmlns="http://www.w3.org/2000/svg" xml:space="preserve" width="210mm" height="297mm" version="1.1" style="shape-rendering:geometricPrecision; text-rendering:geometricPrecision; image-rendering:optimizeQuality; fill-rule:evenodd; clip-rule:evenodd"
viewBox="0 0 21000 29700"
 xmlns:xlink="http://www.w3.org/1999/xlink"
 xmlns:xodm="http://www.corel.com/coreldraw/odm/2003">
 <defs>
  <style type="text/css">
   <![CDATA[
    .fil0 {fill:#ED3237}
   ]]>
  </style>
 </defs>
 <g id="Camada_x0020_1">
  <metadata id="CorelCorpID_0Corel-Layer"/>
  <g id="_2034438026448">
   <path class="fil0" d="M13338.49 8895.32c0,118.86 93.37,246.94 282.22,246.94 210.9,0 248.26,-191.71 332.9,-337.38 67.51,-116.19 204.35,-322.01 231.54,-438.73 432.12,115.38 2040.62,1664.44 2151.95,2081.39 -142.96,38.17 -438.94,244.35 -589.28,327.94 -330.85,183.94 -433.78,233.63 -433.78,589.28 0,266.3 224.93,423.33 529.17,423.33 251.99,0 781.96,-473.82 1023.05,-493.88 88.64,380.46 437.68,856.64 615.54,2030.29 38.43,253.61 39.03,573.05 90.02,791.93 -620.82,0 -1023.06,-123.9 -1023.06,317.5 0,312.64 704.65,211.66 1023.06,211.66 -76.63,920.92 -163.45,1388.71 -440.47,2205.37 -79.65,234.81 -214.17,433.58 -265.09,652.13 -300.61,-25.01 -671.94,-493.88 -1128.88,-493.88 -266.3,0 -423.34,224.92 -423.34,529.16 0,266.25 253.35,382.8 429.52,487.7 119.53,71.17 484.63,294.61 593.54,323.69 -110.84,415.09 -1675.45,1943.32 -2116.67,2046.11 -23.81,-102.22 -254.61,-470.05 -326.14,-591.12 -175.81,-297.54 -520.52,-176 -520.52,61.95 0,229.46 364.64,565.37 388.05,846.67 -131.98,30.75 -462.49,201.19 -611.52,270.43 -510.66,237.25 -1607.23,505.68 -2210.7,505.68 0,-580.53 138.4,-1411.11 -493.89,-1411.11 -632.29,0 -493.89,830.58 -493.89,1411.11 -1368.29,0 -2541.14,-710.62 -2822.22,-776.11 66.92,-99.93 423.33,-706.83 423.33,-811.39 0,-197.32 -166.82,-246.94 -317.5,-246.94 -143.23,0 -493.59,642.89 -529.16,776.11 -438.42,-117.06 -2040.92,-1665.57 -2151.95,-2081.39 108.88,-29.07 474.05,-252.53 593.54,-323.69 292.73,-174.32 429.52,-205.09 429.52,-593.53 0,-266.3 -224.93,-423.33 -529.17,-423.33 -254.75,0 -756.75,471.72 -1023.05,493.88 -86.96,-373.24 -438.13,-859.62 -615.54,-2030.29 -38.43,-253.61 -39.03,-573.05 -90.02,-791.93 533.09,0 1023.06,141.13 1023.06,-317.5 0,-312.64 -704.65,-211.66 -1023.06,-211.66 147.2,-631.86 -27.85,-857.27 444.79,-2201.05 76.45,-217.38 211.65,-445.65 260.77,-656.45 306.12,25.47 657.6,493.88 1128.88,493.88 178.76,0 423.34,-208.92 423.34,-352.77 0,-399.58 -27.57,-424.75 -429.52,-664.09 -119.53,-71.17 -484.63,-294.61 -593.54,-323.69 108.3,-405.58 1687.4,-1946.1 2116.67,-2046.11 32.05,137.59 390.05,776.11 564.44,776.11 150.97,0 282.22,-108.75 282.22,-246.94 0,-259.06 -363.26,-548.72 -388.05,-846.67 153.28,-35.71 433.41,-194.44 614.93,-267.01 235.33,-94.09 430.73,-159.86 676.23,-241 367.45,-121.44 1071.15,-268.1 1531.06,-268.1 0,580.53 -138.4,1411.11 493.89,1411.11 632.29,0 493.89,-830.58 493.89,-1411.11 734.18,0 1543.45,254.4 2181.92,499.19 171.42,65.73 481.93,240.02 640.3,276.92 -70.15,132.58 -423.33,700.73 -423.33,811.39zm-11923.89 5185.83l0 635c0,2519.96 1365.82,4805.72 2636.86,6076.75 1272.34,1272.35 3554.72,2636.86 6076.75,2636.86l635 0c4560,0 8713.61,-4153.61 8713.61,-8713.61l0 -635c0,-2519.39 -1365.88,-4805.77 -2636.86,-6076.75 -1272.34,-1272.35 -3554.72,-2636.86 -6076.75,-2636.86l-635 0c-2522.03,0 -4804.41,1364.51 -6076.75,2636.86 -1270.74,1270.73 -2636.86,3557.72 -2636.86,6076.75z"/>
   <path class="fil0" d="M6035.99 12352.54c0,353.9 277.44,513.56 518.3,645.86l2610.57 1446.38c207.43,114.71 244.59,54.9 326.09,273.63 107.61,288.79 270.41,487.35 554.64,609.53 625.07,268.68 1339.66,-173.23 1387.9,-752.9 151.31,-12.59 2305.52,-1250.59 2740.88,-1492.45 294.84,-163.79 681.06,-291.82 681.06,-730.05 0,-461.68 -315.65,-599.72 -705.55,-599.72 -206.1,0 -3137.25,1728.61 -3210.28,1728.61 -105.39,0 -326.48,-87.94 -465.42,-94.42 -171.88,-8.02 -405.23,94.42 -487.08,94.42 -128.65,0 -3017.68,-1728.61 -3245.56,-1728.61 -389.9,0 -705.55,138.04 -705.55,599.72z"/>
  </g>
 </g>
</svg>
